<mxfile host="app.diagrams.net" modified="2024-08-29T03:15:15.310Z" agent="Mozilla/5.0 (Windows NT 10.0; Win64; x64) AppleWebKit/537.36 (KHTML, like Gecko) Chrome/128.0.0.0 Safari/537.36" version="24.6.4" etag="B99PiTOtKk6gxAMyUErN" type="github">
  <diagram name="Page-1" id="d4Csh--X3JA6znI_dAO-">
    <mxGraphModel>
      <root>
        <mxCell id="0" />
        <mxCell id="1" parent="0" />
      </root>
    </mxGraphModel>
  </diagram>
</mxfile>
